<svg width="27" height="37" viewBox="0 0 27 37" fill="none" xmlns="http://www.w3.org/2000/svg">
    <path d="M4.34497 8V0H12.345V8H4.34497ZM4.34497 18V10H12.345V18H4.34497ZM14.345 8V0H22.345V8H14.345ZM14.345 18V10H22.345V18H14.345Z" fill="#007BFF"/>
    <path d="M0.24336 33L2.78301 25.7246H4.4408L7.03397 33H5.60391L4.3123 29.2215C4.18626 28.8303 4.05442 28.3885 3.91679 27.896C3.77916 27.4035 3.62727 26.8421 3.46113 26.2119H3.73534C3.57362 26.8463 3.42642 27.4118 3.29374 27.9085C3.16106 28.4052 3.03599 28.8428 2.91855 29.2215L1.66912 33H0.24336ZM1.72265 31.1973V30.1477H5.55468V31.1973H1.72265ZM8.00665 33V25.7246H10.7289C11.2859 25.7246 11.7546 25.8291 12.1349 26.0382C12.5151 26.2472 12.8028 26.5329 12.9977 26.8953C13.1927 27.2577 13.2902 27.6706 13.2902 28.134C13.2902 28.5986 13.1919 29.0116 12.9951 29.3731C12.7984 29.7347 12.5083 30.0193 12.125 30.227C11.7417 30.4348 11.2691 30.5387 10.7074 30.5387H8.9043V29.4648H10.5352C10.8654 29.4648 11.1354 29.4077 11.3451 29.2935C11.5549 29.1792 11.7094 29.0217 11.8088 28.8209C11.9081 28.6201 11.9578 28.3911 11.9578 28.134C11.9578 27.8745 11.9081 27.6457 11.8088 27.4476C11.7094 27.2494 11.5544 27.0947 11.3436 26.9832C11.1328 26.8717 10.8612 26.816 10.5289 26.816H9.31054V33H8.00665ZM14.4568 33V25.7246H17.1791C17.7361 25.7246 18.2048 25.8291 18.5851 26.0382C18.9653 26.2472 19.253 26.5329 19.4479 26.8953C19.6429 27.2577 19.7404 27.6706 19.7404 28.134C19.7404 28.5986 19.6421 29.0116 19.4453 29.3731C19.2486 29.7347 18.9585 30.0193 18.5752 30.227C18.1919 30.4348 17.7193 30.5387 17.1576 30.5387H15.3545V29.4648H16.9854C17.3156 29.4648 17.5856 29.4077 17.7953 29.2935C18.0051 29.1792 18.1596 29.0217 18.259 28.8209C18.3583 28.6201 18.408 28.3911 18.408 28.134C18.408 27.8745 18.3583 27.6457 18.259 27.4476C18.1596 27.2494 18.0046 27.0947 17.7938 26.9832C17.5829 26.8717 17.3114 26.816 16.9791 26.816H15.7607V33H14.4568ZM23.4629 33.1129C22.9001 33.1129 22.4106 33.025 21.9944 32.8493C21.5782 32.6736 21.2535 32.418 21.0201 32.0826C20.7868 31.7472 20.6602 31.3397 20.6402 30.8602H21.9246C21.946 31.1149 22.0255 31.3265 22.1634 31.4951C22.3012 31.6637 22.4823 31.7897 22.7067 31.8731C22.9311 31.9564 23.1797 31.9981 23.4523 31.9981C23.7389 31.9981 23.9919 31.9543 24.2111 31.8668C24.4304 31.7793 24.6022 31.6564 24.7265 31.498C24.8508 31.3396 24.9129 31.1564 24.9129 30.9484C24.9129 30.7586 24.8581 30.6019 24.7485 30.4782C24.639 30.3546 24.4857 30.2503 24.2887 30.1652C24.0917 30.0802 23.8612 30.0048 23.5973 29.9391L22.7711 29.7234C22.1652 29.568 21.6916 29.3318 21.3503 29.0149C21.009 28.6981 20.8383 28.2829 20.8383 27.7695C20.8383 27.3406 20.9542 26.9653 21.1861 26.6437C21.418 26.322 21.7342 26.0721 22.1347 25.894C22.5351 25.716 22.9891 25.627 23.4965 25.627C24.0148 25.627 24.4688 25.7166 24.8583 25.8958C25.2478 26.075 25.5527 26.322 25.7729 26.6368C25.9932 26.9516 26.1081 27.3122 26.1176 27.7187H24.8543C24.8214 27.4061 24.6817 27.1641 24.4353 26.9927C24.1888 26.8212 23.8697 26.7355 23.4777 26.7355C23.2051 26.7355 22.9698 26.7768 22.7719 26.8595C22.5739 26.9421 22.4222 27.0554 22.3166 27.1994C22.211 27.3434 22.1582 27.5077 22.1582 27.6922C22.1582 27.8957 22.2207 28.0625 22.3458 28.1925C22.4709 28.3225 22.6287 28.4265 22.8194 28.5046C23.0101 28.5827 23.2027 28.6461 23.3973 28.6949L24.0773 28.8688C24.3465 28.9326 24.6084 29.0188 24.8632 29.1275C25.1179 29.2363 25.3472 29.3728 25.5509 29.537C25.7546 29.7013 25.9162 29.9001 26.0358 30.1334C26.1554 30.3667 26.2152 30.6415 26.2152 30.9578C26.2152 31.3842 26.1066 31.7596 25.8893 32.0839C25.6721 32.4082 25.3583 32.6607 24.948 32.8416C24.5378 33.0225 24.0427 33.1129 23.4629 33.1129Z" fill="#007BFF"/>
</svg>
