<svg width="36" height="32" viewBox="0 0 36 32" fill="none" xmlns="http://www.w3.org/2000/svg">
    <rect width="36" height="32" rx="8" fill="#007BFF" fill-opacity="0.1"/>
    <path d="M10 24C9.45 24 8.97917 23.8042 8.5875 23.4125C8.19583 23.0208 8 22.55 8 22V10C8 9.45 8.19583 8.97917 8.5875 8.5875C8.97917 8.19583 9.45 8 10 8H26C26.55 8 27.0208 8.19583 27.4125 8.5875C27.8042 8.97917 28 9.45 28 10V22C28 22.55 27.8042 23.0208 27.4125 23.4125C27.0208 23.8042 26.55 24 26 24H10ZM10 22H26V12H10V22ZM13.5 21L12.1 19.6L14.675 17L12.075 14.4L13.5 13L17.5 17L13.5 21ZM18 21V19H24V21H18Z" fill="#007BFF"/>
</svg>
